<svg width="283" height="230" viewBox="0 0 283 230" fill="none" xmlns="http://www.w3.org/2000/svg">
<path d="M214.653 0.104607C214.653 0.193902 215.081 0.685025 215.576 1.15382C217.354 2.85042 221.114 7.22587 226.404 13.7667C229.33 17.3832 232.91 21.647 234.395 23.2543C237.164 26.2457 241.689 30.197 244.39 31.9605C246.506 33.3446 246.619 33.3669 246.619 32.6079C246.619 31.715 245.156 25.8215 244.458 23.924C241.171 14.8829 234.913 7.85093 226.291 3.56478C223.522 2.20304 220.146 1.01988 217.467 0.506433C216.476 0.30552 215.441 0.104606 215.171 0.0376351C214.878 -0.029336 214.653 -0.00701133 214.653 0.104607Z" fill="#007FFF"/>
<path d="M61.899 0.753857C56.0043 3.37489 50.5666 6.57071 46.7054 9.65157C44.6719 11.284 41.2905 14.7787 39.7369 16.8709C38.4574 18.6182 36.1726 22.8717 35.1902 25.3777C34.2534 27.7918 32.9283 34.1835 33.1568 35.2411C33.2025 35.563 33.568 35.402 34.9846 34.4134C43.0955 28.7805 50.7265 20.3886 58.8603 8.08814C62.0132 3.32891 63.9553 0.271038 63.9553 0.110098C63.9553 -0.119817 63.6354 -0.0278539 61.899 0.753857Z" fill="#007FFF"/>
<path d="M131.479 4.68768C113.31 6.18417 96.2333 12.6916 82.185 23.4392C70.1631 32.6448 60.4409 44.7075 54.225 58.1532C49.6713 67.9938 47.0756 77.5849 45.96 88.7632C45.5501 92.7766 45.6184 102.345 46.0738 106.517C48.8288 131.867 61.0101 153.974 80.9327 169.8C92.2033 178.757 105.591 184.992 119.981 187.962C123.488 188.688 131.274 189.708 131.502 189.482C131.593 189.414 131.206 188.575 130.66 187.645C129.658 185.944 129.658 185.944 128.519 185.808C115.837 184.244 104.407 180.48 93.8881 174.449C88.879 171.592 82.3899 166.83 78.3143 163.044L76.6067 161.479L80.5457 157.511L84.5074 153.566L84.0065 151.888C83.7333 150.958 83.4601 150.119 83.3918 150.006C83.3235 149.915 81.206 151.888 78.6559 154.405L74.0566 158.962L72.8271 157.647C68.6832 153.18 64.6531 147.807 61.6021 142.66C54.225 130.189 49.9673 116.222 49.2614 102.073L49.102 99.08H57.5265H65.9509L66.0875 102.073C66.5884 112.503 70.1631 124.18 75.7642 133.771C77.2897 136.402 80.6823 141.322 80.7734 141.05C80.8189 140.936 80.1814 138.556 79.3617 135.744C78.246 131.844 77.563 129.939 76.5384 127.831C74.603 123.863 74.3981 123.341 73.2141 119.963C71.3699 114.657 70.4136 110.394 69.6622 103.955C69.2751 100.644 69.0019 99.3747 67.7496 95.112C66.93 92.3684 66.2469 90.2144 66.2241 90.3504C66.2014 90.4638 66.1331 91.6882 66.042 93.0713L65.9054 95.5655L57.5037 95.6335L49.102 95.6788L49.2387 92.3458C49.8762 77.7436 54.6576 62.6654 62.6722 49.8545C65.3134 45.6144 69.1385 40.6035 72.2578 37.293L73.9427 35.4791L79.8854 41.3517L85.8052 47.247L84.849 48.358C80.4318 53.4823 78.2233 56.4753 75.8781 60.5113C74.3298 63.1642 72.1668 67.4496 72.1668 67.8577C72.1668 68.0164 72.7132 68.6967 73.3963 69.3542L74.6258 70.5786L76.083 67.5403C77.7907 63.9805 79.3162 61.3503 81.6613 57.9265C83.2552 55.6137 87.1486 50.8068 87.991 50.1039C88.3098 49.8318 89.0384 50.4667 93.9337 55.3416L99.4893 60.8741L98.6013 61.7811C94.1841 66.3839 89.6759 74.2972 87.5357 81.2354L86.8981 83.2534L88.2415 84.5912C88.9701 85.3168 89.6304 85.929 89.6987 85.929C89.767 85.929 90.063 85.0447 90.359 83.9337C92.1577 77.3355 95.9601 70.1478 100.4 64.9781L101.88 63.2549L107.048 68.4019C111.534 72.8687 112.194 73.617 111.944 73.9344C111.807 74.1385 111.101 75.0681 110.373 75.9751C106.707 80.7593 104.18 86.972 103.519 92.958L103.223 95.5655L101.197 95.6335L99.1705 95.7015L100.855 97.3794C101.789 98.309 102.722 99.08 102.95 99.08C103.201 99.08 103.36 99.2387 103.36 99.5108C103.36 99.9189 107.185 104.204 107.367 104.023C107.413 103.978 107.344 103.547 107.231 103.048C107.117 102.549 106.957 101.461 106.889 100.599L106.73 99.08H108.324H109.917L110.282 97.6061C110.487 96.8125 110.646 96.0416 110.646 95.9056C110.646 95.7695 109.895 95.6788 108.688 95.6788H106.707L106.866 94.069C107.413 88.083 110.213 81.3715 114.038 76.8593C114.608 76.1791 114.744 76.1338 115.063 76.3832C115.268 76.5646 115.473 76.6553 115.518 76.6099C115.564 76.5646 115.974 74.9774 116.429 73.1181C116.885 71.2362 117.34 69.5129 117.408 69.2862C117.545 68.7874 117.636 68.742 115.564 70.3746L114.722 71.0321L109.599 65.9531C106.798 63.1642 104.498 60.8061 104.498 60.7381C104.498 60.4433 108.802 57.0422 111.079 55.523C113.697 53.7771 117.818 51.6457 120.436 50.6481C121.37 50.308 122.212 49.9225 122.281 49.8318C122.486 49.5371 123.237 46.2266 123.123 46.1133C122.941 45.9545 118.228 47.7685 115.701 48.9702C111.238 51.1016 106.456 54.2533 103.292 57.1329L101.971 58.3346L96.3927 52.8021L90.8144 47.2696L92.2488 45.9319C100.81 37.9733 112.877 31.8966 125.081 29.4025L127.586 28.9036L127.996 27.2257C128.246 26.3188 128.383 25.5025 128.314 25.4572C128.132 25.2758 125.104 25.8199 121.643 26.6589C109.803 29.5158 99.3754 35.003 89.8581 43.3924L88.3098 44.7528L82.4127 38.8802L76.4928 33.0076L77.2442 32.2367C78.4054 31.0123 82.3444 27.6792 84.8262 25.8199C98.4191 15.5712 114.79 9.44924 132.049 8.11147C132.754 8.04345 132.845 7.95274 133.096 7.13648C133.233 6.63765 133.415 5.84406 133.506 5.3679C133.688 4.43826 133.825 4.48361 131.479 4.68768Z" fill="#007FFF"/>
<path d="M142.887 5.22383C142.977 5.58642 143.203 6.37958 143.405 7.0141C143.766 8.14717 143.766 8.14717 144.781 8.21515C145.345 8.23782 147.216 8.41911 148.952 8.62306C164.803 10.368 181.06 17.1891 193.596 27.3188C196.753 29.8795 199.661 32.4856 199.752 32.8255C199.774 32.9615 197.226 35.6582 194.07 38.8308L188.343 44.5868L185.231 41.9128C176.528 34.5251 165.998 29.177 155.153 26.6389C151.41 25.7778 148.163 25.2566 148.163 25.5285C148.163 26.0724 148.952 28.7918 149.132 28.9278C149.268 28.9957 149.922 29.1317 150.598 29.2223C152.672 29.4716 157.768 30.8313 161.015 31.9644C165.953 33.6867 170.936 36.0661 175.107 38.6949C177.655 40.3038 182.48 43.975 184.307 45.6972L185.84 47.1249L180.338 52.6543L174.814 58.1611L173.033 56.6201C169.2 53.2888 164.668 50.4335 159.73 48.258C157.453 47.2609 153.529 45.8332 153.394 45.9692C153.371 46.0145 153.552 46.8983 153.8 47.9407L154.273 49.8443L156.077 50.4788C161.038 52.2464 166.99 55.8496 171.612 59.8833L172.402 60.5858L167.238 65.798L162.075 71.0101L161.038 70.081C159.797 68.9933 159.211 68.6533 159.211 68.9933C159.211 69.3332 161.038 76.5622 161.15 76.6755C161.195 76.7208 161.443 76.5849 161.691 76.3582C162.142 75.9503 162.165 75.9503 162.819 76.7208C165.006 79.2816 167.441 83.6099 168.568 86.9865C169.222 88.958 169.921 92.176 170.147 94.3061L170.282 95.7338H168.117C166.945 95.7338 165.975 95.8018 165.975 95.8924C165.998 96.0057 166.178 96.7309 166.381 97.5467L166.765 99.0197L168.523 99.0877C169.47 99.133 170.26 99.2237 170.26 99.3143C170.26 99.405 170.102 100.493 169.921 101.716C169.741 102.963 169.628 104.005 169.673 104.051C169.718 104.096 170.62 103.235 171.703 102.147C172.943 100.855 173.642 99.9715 173.642 99.6316C173.642 99.269 173.777 99.133 174.16 99.133C174.498 99.133 175.243 98.5665 176.347 97.4334L178.016 95.7338H175.874H173.709L173.461 93.2864C172.717 86.4879 169.944 79.9387 165.57 74.7039L164.555 73.4802L169.741 68.2681L174.927 63.0559L176.618 65.0955C181.06 70.4209 184.758 77.4233 186.471 83.8365C186.742 84.8336 187.012 85.8081 187.08 85.9894C187.17 86.2386 187.599 85.8987 188.523 84.8563C189.267 84.0405 189.876 83.3153 189.876 83.2247C189.898 82.7035 188.298 78.2165 187.17 75.6557C185.141 70.9421 181.714 65.5261 178.647 62.1722C177.993 61.4696 177.475 60.7898 177.475 60.6992C177.475 60.5859 179.91 58.0478 182.886 55.0564L188.275 49.6404L188.884 50.1842C189.808 51.068 193.258 55.3057 194.769 57.4359C196.798 60.3139 198.782 63.7131 200.586 67.4523L202.187 70.8062L203.495 69.4692L204.802 68.1548L203.314 65.1635C200.36 59.2488 197.317 54.6259 193.168 49.8216L190.823 47.0796L196.618 41.2556L202.435 35.4089L203.675 36.746C208.838 42.2074 214.61 50.5921 217.97 57.4812C218.331 58.2064 218.782 58.8636 219.007 58.9316C219.3 59.0222 219.368 59.2035 219.3 59.5434C219.21 59.8607 219.593 61.0391 220.338 62.7614C224.126 71.6673 226.606 82.6355 227.012 92.2666L227.147 95.7338H219.03H210.89L210.755 95.2126C210.687 94.9407 210.62 93.8529 210.62 92.7878C210.62 91.7454 210.529 90.9749 210.439 91.0882C210.033 91.5641 207.237 102.079 207.012 104.005C205.952 113.228 203.72 120.956 200.067 128.298C199.707 129.024 198.782 131.811 198.038 134.485C197.271 137.159 196.55 139.697 196.437 140.105C196.121 141.193 196.415 140.875 198.173 138.292C205.546 127.324 209.875 114.701 210.574 102.192L210.732 99.2463L218.94 99.1784L227.147 99.133L227.012 102.351C226.268 119.279 219.819 136.932 209.312 150.892C206.764 154.291 202.683 158.959 202.277 158.959C202.187 158.959 200.225 157.033 197.88 154.654L193.619 150.371L193.032 152.002C192.491 153.521 189.628 158.144 187.215 161.339L186.381 162.449L187.937 161.588C188.794 161.112 189.786 160.546 190.124 160.342C190.642 160.047 190.845 159.617 191.454 157.373C191.86 155.945 192.266 154.631 192.334 154.495C192.424 154.314 193.822 155.56 196.167 157.917L199.842 161.611L197.835 163.446C187.283 173.168 173.213 180.601 158.873 184C156.167 184.635 150.711 185.587 148.366 185.813L146.9 185.972L145.863 187.694L144.826 189.439L145.57 189.507C146.63 189.598 153.101 188.759 156.506 188.057C186.764 181.961 212.017 161.044 223.765 132.332C237.045 99.8582 230.754 62.2628 207.666 36.0208C191.387 17.5064 169.335 6.53821 144.826 4.72529L142.729 4.56665L142.887 5.22383Z" fill="#007FFF"/>
<path d="M130.106 35.1011C125.92 51.9484 118.565 81.4142 113.767 100.603C108.97 119.77 105.055 135.617 105.055 135.799C105.055 136.003 107.68 140.619 110.871 146.075C114.061 151.532 117.32 157.057 118.067 158.375C120.285 162.172 131.509 181.316 132.324 182.703C132.731 183.385 134.112 185.727 135.379 187.864C136.646 190.024 137.755 191.797 137.823 191.797C137.913 191.797 138.366 191.161 138.819 190.365C139.271 189.592 146.784 176.996 155.497 162.377C164.209 147.758 171.315 135.753 171.27 135.662C171.18 135.526 170.206 131.706 166.495 117.11C165.658 113.858 164.549 109.448 164.006 107.333C163.463 105.196 162.354 100.808 161.517 97.5567C160.702 94.3055 159.525 89.6901 158.914 87.3256C158.303 84.9383 157.194 80.5502 156.425 77.5491C154.411 69.5915 152.261 61.1565 150.88 55.7226C150.202 53.0852 149.047 48.4926 148.278 45.4914C147.509 42.4903 146.354 37.8749 145.676 35.2603C144.997 32.6229 143.639 27.2118 142.62 23.2102C138.547 7.20415 137.891 4.635 137.823 4.56679C137.778 4.52132 134.315 18.2765 130.106 35.1011Z" fill="#007FFF"/>
<path d="M241.908 12.5809C241.908 12.6491 242.522 13.6722 243.296 14.8773C246.14 19.4019 248.439 24.9724 250.054 31.2932C251.533 37.0001 252.102 39.6603 252.489 42.4342C252.694 43.8666 252.944 45.2763 253.058 45.5491C253.399 46.3676 252.944 46.163 252.33 45.2081C251.556 44.0485 248.302 40.7971 246.231 39.1146C245.298 38.3643 242.727 36.4317 240.542 34.8401C233.352 29.6334 230.78 27.4962 228.3 24.6086C227.776 23.9947 227.299 23.54 227.23 23.5854C227.071 23.7446 227.936 27.7008 228.482 29.4288C229.301 31.9071 231.099 35.3631 232.669 37.4321C235.331 40.9563 238.631 44.003 245.435 49.1415C250.145 52.7112 252.808 54.9167 254.719 56.8493C256.426 58.5545 258.611 61.2602 259.202 62.4198C259.361 62.7381 259.543 62.8745 259.68 62.7381C260.249 62.1697 260.545 46.1403 260.112 40.4334C259.657 34.4763 257.951 28.1328 255.743 24.0174C252.785 18.5606 248.325 14.6726 242.773 12.7855C242.295 12.6036 241.908 12.5126 241.908 12.5809Z" fill="#007FFF"/>
<path d="M34.4908 14.3764C31.1541 15.9704 27.5504 19.2266 25.4148 22.5739C22.7232 26.8548 20.8323 32.9118 19.8313 40.5627C19.4976 43.1358 19.4309 45.2763 19.4309 53.7014C19.4309 59.2347 19.4976 63.8344 19.5866 63.9255C19.6756 64.0165 20.5654 63.1968 21.5442 62.1266C23.5018 59.9861 26.7718 57.0032 30.4422 53.9974C39.0733 46.9157 42.8327 43.3408 45.6579 39.447C48.6609 35.3255 50.752 30.2476 51.2414 25.8756L51.3971 24.5094L49.9956 26.1033C47.0593 29.4506 43.767 32.4108 36.7598 38.0124C31.0651 42.5438 29.8861 43.5685 27.3946 46.096C26.3714 47.0979 25.5483 47.8266 25.5483 47.6672C25.5483 47.3939 25.8375 46.2554 27.6838 39.3103C30.7537 27.7884 33.4898 19.5681 35.6921 15.2873C36.048 14.6041 36.3594 13.9666 36.4039 13.8527C36.5596 13.5339 35.8923 13.7161 34.4908 14.3764Z" fill="#007FFF"/>
<path d="M262.295 32.288C262.251 32.4467 262.494 33.286 262.892 34.1479C263.843 36.3028 264.374 38.6391 264.75 42.2003C265.281 47.1678 265.104 52.9291 264.109 65.019C263.932 67.1285 263.711 70.304 263.622 72.0733C263.556 73.8652 263.401 75.3169 263.29 75.3169C263.18 75.3169 263.091 75.1581 263.091 74.954C263.091 74.3415 261.963 71.6423 261.056 70.0999C259.132 66.8336 256.345 63.8395 251.148 59.4391C246.746 55.6964 245.53 54.4489 244.335 52.3394C243.76 51.3187 242.92 50.1165 242.433 49.6402C241.593 48.8009 240.155 48.1658 239.823 48.506C239.713 48.6194 239.779 49.1411 239.956 49.7082C240.133 50.2526 240.597 51.727 240.973 52.9745C242.146 56.7171 244.512 61.9115 246.613 65.3365C248.117 67.8089 251.302 72.595 254.156 76.6778C257.739 81.7814 259.906 85.2065 261.764 88.6089C263.18 91.2401 265.038 95.391 265.237 96.4571C265.458 97.5685 265.856 97.0242 266.033 95.391C266.298 92.8506 267.183 89.5389 268.953 84.2538C273.376 71.234 273.973 68.6028 274.018 62.0476C274.04 57.1027 273.73 54.4489 272.58 50.1845C271.098 44.6273 268.577 39.0474 265.259 33.9892C264.175 32.3333 262.627 31.4487 262.295 32.288Z" fill="#007FFF"/>
<path d="M14.0438 37.122C9.72994 42.7182 7.58395 49.1073 6.97081 58.1247C6.62044 63.3584 7.23358 71.1976 8.41607 76.3633C8.59125 77.1789 8.83213 78.2891 8.96351 78.8555C9.97081 83.5454 13.1022 92.1776 15.3577 96.4144C16.4307 98.4535 16.5402 98.5441 16.7154 97.6152C17.219 95.2136 18.8613 90.9315 20.438 87.9182C22.2993 84.3837 23.8541 81.9821 28.1898 75.9102C34.3431 67.3006 37.2117 61.4552 38.1753 55.5192C38.876 51.0785 38.9198 50.648 38.7665 50.4894C38.657 50.3761 38.2628 50.7839 37.8468 51.373C37.4526 51.9847 34.4526 55.202 31.2117 58.5778C24.4015 65.624 22.5621 67.7311 20.7227 70.5632C19.365 72.6929 17.7446 75.8648 17.2847 77.3149C17.1314 77.7907 16.9343 78.2211 16.8686 78.2664C16.781 78.3118 16.7373 76.0687 16.781 73.282C16.8467 68.2295 16.6059 64.3779 15.8175 57.9661C14.6132 48.0651 14.5475 39.9087 15.6424 35.8532C15.8832 34.9696 15.4453 35.3321 14.0438 37.122Z" fill="#007FFF"/>
<path d="M212.892 66.6952C212.709 66.9669 210.244 69.4801 207.459 72.2876C201.708 78.0612 196.937 82.9065 184.087 95.9707C171.967 108.288 170.415 109.895 170.346 110.099C170.278 110.28 171.305 114.288 175.528 130.703L176.897 136.024L166.375 153.457C160.577 163.057 155.145 172.069 154.278 173.473C152.749 175.986 152.749 176.008 153.479 175.646C153.867 175.442 156.834 173.79 160.03 171.978C168.794 167.042 175.482 163.284 181.919 159.684L187.693 156.424L189.04 151.782C196.755 124.884 212.869 68.7782 213.417 66.9216C213.668 66.0839 213.394 65.9707 212.892 66.6952Z" fill="#007FFF"/>
<path d="M65.0968 66.2245C65.0968 66.3155 67.5736 75.2343 70.586 86.0188C80.2256 120.556 89.5974 154.07 89.9768 155.481L90.3561 156.846L99.4156 162.079C110.327 168.358 115.303 171.225 119.32 173.569C120.971 174.524 122.577 175.457 122.89 175.616C123.425 175.912 123.425 175.912 123.091 175.366C122.89 175.07 120.882 171.589 118.605 167.653C114.522 160.577 110.327 153.297 103.744 141.921L100.397 136.096L103.611 123.15C105.373 116.029 106.801 110.022 106.757 109.817C106.712 109.453 105.195 107.838 94.4396 96.6667C91.8512 93.982 85.6702 87.5204 80.7165 82.333C67.5513 68.568 65.0968 66.0425 65.0968 66.2245Z" fill="#007FFF"/>
<path d="M277.181 68.7748C277.114 68.9358 277.026 70.2694 276.959 71.7411C276.606 78.8693 274.837 85.4687 270.37 96.0921C267.34 103.266 264.886 110.234 264.886 111.567C264.886 111.797 264.797 111.935 264.687 111.866C264.576 111.797 264.421 110.923 264.333 109.958C263.935 105.06 262.409 99.8632 259.976 94.8964C259.07 93.1028 256.814 89.0788 254.957 85.9746C253.099 82.8703 251.065 79.2372 250.446 77.8806C249.804 76.5239 249.229 75.4202 249.163 75.4202C248.588 75.3512 249.03 84.319 249.848 89.1478C250.313 91.8841 251.817 98.1846 252.369 99.7022C253.497 102.783 256.129 112.004 257.124 116.327C258.141 120.742 258.362 122.835 258.362 128.468C258.362 131.273 258.406 133.573 258.473 133.573C258.672 133.573 264.664 127.157 265.881 125.663C273.62 116.12 278.574 105.336 280.254 94.4595C281.36 87.1933 280.962 78.6624 279.149 71.3732C278.596 69.1887 278.22 68.4989 277.557 68.4989C277.38 68.4989 277.225 68.6368 277.181 68.7748Z" fill="#007FFF"/>
<path d="M1.62341 74.4675C1.28676 75.8756 0.927673 77.3973 0.793014 77.8288C0.389037 79.2596 -0.0373822 84.9147 0.0299472 87.9353C0.11972 91.3874 0.523696 95.6345 0.815457 96.4521C0.927673 96.77 1.12966 97.6331 1.28676 98.3825C3.39642 109.352 10.7129 122.161 22.0018 134.721L23.0117 135.856L23.0342 131.541C23.0342 126.976 23.2137 124.819 23.9543 120.413C24.6052 116.529 25.0316 114.939 28.1961 104.287C31.0239 94.7941 31.7645 90.9105 31.9441 84.9829C32.0788 80.804 31.8992 76.9203 31.5626 76.9203C31.4728 76.9203 31.1586 77.5108 30.8668 78.2149C30.1486 80.0091 28.2859 83.6429 25.9967 87.7082C21.8447 95.0894 19.8248 99.4273 18.6129 103.447C17.7376 106.422 16.997 110.17 16.8174 112.509C16.7501 113.667 16.593 114.621 16.4808 114.621C16.391 114.621 16.3012 114.439 16.3012 114.212C16.3012 112.736 13.81 104.992 11.4086 99.0639C10.6231 97.0653 9.1643 93.4769 8.22169 91.0922C5.75295 84.9829 3.4413 77.5335 2.8129 73.6726C2.65579 72.7187 2.45381 71.9239 2.36403 71.9239C2.27426 71.9239 1.93761 73.0821 1.62341 74.4675Z" fill="#007FFF"/>
<path d="M248.966 108.743C248.874 108.97 248.668 109.536 248.485 109.966C248.187 110.69 247.316 113.722 246.766 115.963C246.331 117.773 245.667 121.711 245.231 125.242C244.819 128.614 244.59 130.854 243.719 139.839C242.436 153.259 241.039 161.022 239.137 165.276C238.817 166.001 238.588 166.634 238.633 166.68C238.771 166.815 256.113 155.387 258.84 153.372C271.784 143.845 278.29 134.588 280.948 121.915C281.566 118.928 282.276 111.323 281.91 111.323C281.818 111.323 281.245 112.183 280.65 113.247C276.893 119.788 271.852 126.215 262.757 136.105C256.801 142.577 254.281 145.361 252.585 147.42C251.761 148.416 251.142 149.072 251.211 148.869C252.998 144.003 253.341 141.717 253.318 134.521C253.318 126.713 252.654 121.802 250.249 111.776C249.493 108.608 249.241 107.997 248.966 108.743Z" fill="#007FFF"/>
<path d="M30.171 110.281C30.171 110.667 29.7713 113.692 29.2827 116.99C28.3721 123.131 27.7058 128.225 27.2616 132.183C27.1283 133.457 27.0617 136.481 27.1283 139.233C27.2172 144.123 27.5281 146.33 28.5053 149.15C28.683 149.696 28.794 150.196 28.7496 150.241C28.7052 150.31 28.2832 149.764 27.839 149.036C25.9957 146.102 23.1973 142.781 16.2902 135.412C13.4918 132.41 10.4047 128.999 9.44967 127.862C5.80733 123.449 2.4315 118.059 0.943469 114.215C0.588119 113.306 0.210559 112.555 0.0995123 112.555C-0.100372 112.555 0.121722 119.378 0.410444 121.539C0.987888 125.928 2.34266 130.591 4.18604 134.548C8.8278 144.533 16.801 152.47 30.9706 161.227C33.9244 163.069 42.0753 167.822 42.2529 167.822C42.3196 167.822 42.0753 167.163 41.7199 166.344C40.8982 164.434 39.4323 159.68 38.8549 156.905C37.9887 152.834 37.4779 148.854 36.3897 137.573C35.368 126.952 34.8572 123.472 33.4802 117.923C32.4808 113.897 30.9039 109.598 30.3931 109.598C30.2821 109.598 30.171 109.917 30.171 110.281Z" fill="#007FFF"/>
<path d="M237.696 136.909C233.683 141.774 229.283 150.633 225.362 161.855C220.712 175.096 216.95 183.082 212.573 188.865L211.228 190.655L212.299 190.518C216.449 190.013 224.45 188.521 227.528 187.695C228.417 187.443 229.739 187.075 230.492 186.869C239.542 184.39 249.482 179.319 255.683 174.018C262.955 167.775 267.765 160.73 271.208 151.321C271.892 149.439 271.915 148.843 271.253 149.829C270.41 151.046 267.264 154.121 264.688 156.209C259.604 160.317 252.582 164.7 241.434 170.69C237.103 173.008 229.808 177.184 228.144 178.309C227.209 178.906 226.411 179.41 226.343 179.41C226.274 179.41 226.821 178.768 227.551 177.965C231.495 173.742 234.367 166.697 236.305 156.576C236.556 155.177 236.921 153.387 237.103 152.56C237.285 151.734 237.582 150.082 237.787 148.889C238.197 146.502 239.337 140.604 239.839 138.447C240.089 137.368 240.112 136.978 239.884 136.496C239.428 135.532 238.767 135.647 237.696 136.909Z" fill="#007FFF"/>
<path d="M41.1503 139.883C41.6426 141.875 42.5154 146.222 43.7015 152.516C45.4695 161.821 47.3494 168.387 49.6097 173.119C50.9301 175.858 52.631 178.575 53.8842 180.002C54.2423 180.409 54.5556 180.817 54.5556 180.862C54.5556 181.02 53.6828 180.477 53.5485 180.228C53.3695 179.956 49.7664 177.556 47.1704 176.017C44.731 174.568 42.7392 173.504 35.8687 169.949C23.8509 163.723 19.2855 160.712 14.4963 155.822C13.064 154.373 11.5645 152.697 11.1617 152.109C10.7589 151.497 10.3784 151.067 10.3113 151.135C10.1322 151.316 11.766 156.161 12.8849 158.742C14.6529 162.818 16.8013 166.349 19.4645 169.542C27.633 179.322 40.2551 185.82 59.3001 189.986C62.187 190.642 68.6547 191.797 69.3037 191.797C69.8185 191.797 69.8185 191.774 69.0576 190.824C66.7525 187.971 64.2907 183.918 62.4108 179.956C61.7842 178.598 61.2695 177.466 61.2695 177.398C61.2695 177.353 61.0681 176.877 60.8443 176.334C60.24 174.998 58.9868 171.851 57.6887 168.364C52.3848 154.101 50.1245 149.233 46.4318 144.071C44.9324 141.943 41.4412 138.14 41.016 138.14C40.8146 138.14 40.837 138.57 41.1503 139.883Z" fill="#007FFF"/>
<path d="M217.567 167.005C214.171 169.555 209.339 173.768 203.733 179.111C193.864 188.491 190.331 191.595 188.349 192.548C187.71 192.859 185.887 193.48 184.269 193.923C180.577 194.921 178.594 195.63 177.318 196.429C176.019 197.227 175.563 197.737 175.996 197.892C182.4 200.176 190.536 201.95 199.106 202.925C200.656 203.103 204.302 203.214 208.678 203.214C216.085 203.191 218.592 202.992 223.72 201.95C234.295 199.821 242.683 194.987 247.309 188.358C248.426 186.761 250.044 183.79 250.044 183.346C250.044 183.213 249.497 183.568 248.859 184.1C246.466 186.052 243.07 187.803 238.876 189.245C236.187 190.154 229.897 191.706 228.096 191.927C227.435 191.994 226.136 192.194 225.202 192.349C221.874 192.97 213.715 193.701 203.527 194.344C200.565 194.522 197.944 194.677 197.716 194.677C197.465 194.677 198.126 194.322 199.174 193.901C202.57 192.548 204.872 190.974 207.561 188.18C210.843 184.743 214.216 179 217.339 171.506C218.045 169.799 218.752 168.091 218.911 167.737C219.55 166.295 219.8 165.608 219.709 165.541C219.663 165.497 218.706 166.14 217.567 167.005Z" fill="#007FFF"/>
<path d="M61.0927 167.882C61.0927 168.212 65.1449 175.951 67.2053 179.545C70.0899 184.572 72.3793 187.57 75.6531 190.635C77.7135 192.531 78.8582 193.325 81.5368 194.692C83.0935 195.508 83.2767 195.662 82.6128 195.574C81.6055 195.442 74.5084 194.912 67.7319 194.472C56.3995 193.722 49.3712 192.73 43.6936 191.054C40.8319 190.216 40.5342 190.106 37.9244 188.915C35.635 187.857 33.5746 186.644 32.6588 185.807C30.461 183.822 34.124 189.577 37.1231 192.818C41.6331 197.691 48.7988 201.439 56.4453 202.938C61.3446 203.886 62.8784 204.084 66.7704 204.283C70.3876 204.481 80.0716 204.239 80.5523 203.952C80.621 203.908 82.338 203.666 84.3527 203.423C88.7254 202.894 93.1667 202.122 97.9515 201.064C103.103 199.917 107.338 198.771 107.338 198.528C107.338 198.22 105.438 197.073 103.904 196.456C103.103 196.125 100.79 195.442 98.7757 194.912C96.7382 194.405 94.4946 193.766 93.7391 193.501C91.5871 192.774 89.7327 191.252 80.6897 182.808C73.8903 176.458 72.3106 175.069 69.426 172.842C66.3354 170.483 61.0927 167.352 61.0927 167.882Z" fill="#007FFF"/>
<path d="M150.352 197.663C149.082 197.817 147.7 198.215 145.773 198.967C141.785 200.536 140.515 200.824 138.997 200.492C138.317 200.337 137.773 200.116 137.773 200.006C137.773 199.895 137.977 199.453 138.226 199.055L138.702 198.326L137.773 198.701C137.002 199.011 136.866 199.166 136.98 199.564C137.093 200.05 137.07 200.05 136.141 199.74C135.597 199.586 134.101 199.055 132.787 198.613L130.407 197.751L125.534 197.773C121.205 197.773 120.322 197.839 117.602 198.37C112.729 199.298 108.536 200.647 101.216 203.653C98.8132 204.626 95.2776 206.062 93.3512 206.858C84.8748 210.329 78.9141 211.765 73.0667 211.788C70.1884 211.788 67.65 211.412 63.1398 210.351C58.4257 209.245 54.8221 208.715 54.8221 209.135C54.8221 209.688 62.4599 214.639 66.4488 216.651C70.1431 218.507 73.1801 219.613 76.5797 220.364C80.1833 221.138 86.076 221.182 89.8609 220.453C95.8442 219.281 99.7878 217.424 108.536 211.677C116.695 206.283 120.39 204.427 124.854 203.388C127.053 202.901 131.518 202.548 132.243 202.813C132.606 202.946 132.583 202.99 132.084 203.255C130.43 204.117 120.775 209.864 118.304 211.434C113.092 214.772 109.171 218.021 106.428 221.248C103.822 224.321 103.165 225.493 104.071 225.493C104.615 225.493 106.043 226.863 106.859 228.145C107.312 228.875 107.743 229.471 107.811 229.471C107.879 229.471 110.236 227.217 113.046 224.454C123.88 213.799 128.911 209.931 137.025 205.996L140.719 204.206L141.671 204.626C143.303 205.333 147.7 207.986 150.329 209.864C154.635 212.893 157.581 215.391 166.534 223.503C169.684 226.355 172.358 228.742 172.472 228.786C172.608 228.83 173.605 228.013 174.67 226.996C175.758 225.957 176.846 225.006 177.095 224.896C177.707 224.564 177.413 224.034 175.35 221.735C172.245 218.286 168.37 215.302 160.664 210.461C153.366 205.886 148.901 202.857 148.516 202.26C148.334 201.951 152.981 202.039 155.678 202.393C160.12 202.968 161.593 203.763 169.163 209.688C175.395 214.573 177.163 215.59 182.036 217.225C186.932 218.861 191.102 219.392 197.946 219.237C202.321 219.126 203.612 219.016 205.969 218.552C212.723 217.203 217.981 214.816 221.608 211.456C223.013 210.174 225.098 207.433 224.917 207.146C224.871 207.057 224.033 207.389 223.058 207.853C220.996 208.825 217.03 210.152 214.74 210.594C213.857 210.771 211.658 210.97 209.845 211.036C202.932 211.323 196.926 209.931 185.028 205.311C171.248 199.961 168.8 199.188 162.477 198.06C159.644 197.552 153.049 197.331 150.352 197.663Z" fill="#007FFF"/>
</svg>
