<svg width="325" height="351" viewBox="0 0 325 351" fill="none" xmlns="http://www.w3.org/2000/svg">
<path d="M235.671 0.104607C235.671 0.193901 236.091 0.685024 236.576 1.15382C238.32 2.85042 242.006 7.22587 247.192 13.7667C250.061 17.3832 253.571 21.647 255.027 23.2543C257.742 26.2457 262.178 30.197 264.827 31.9605C266.901 33.3446 267.011 33.3669 267.011 32.6079C267.011 31.715 265.577 25.8215 264.893 23.924C261.67 14.8829 255.535 7.85093 247.082 3.56478C244.367 2.20304 241.057 1.01988 238.43 0.506432C237.459 0.305519 236.444 0.104607 236.179 0.0376358C235.892 -0.029335 235.671 -0.00701141 235.671 0.104607Z" fill="#0E86FF"/>
<path d="M85.9089 0.753857C80.1297 3.37489 74.7985 6.57071 71.0129 9.65157C69.0193 11.284 65.704 14.7787 64.1808 16.8709C62.9264 18.6182 60.6864 22.8717 59.7232 25.3777C58.8048 27.7918 57.5056 34.1835 57.7296 35.2411C57.7744 35.563 58.1328 35.402 59.5216 34.4134C67.4737 28.7805 74.9553 20.3886 82.9297 8.08814C86.0209 3.32891 87.9249 0.271038 87.9249 0.110096C87.9249 -0.119816 87.6113 -0.0278549 85.9089 0.753857Z" fill="#0E86FF"/>
<path d="M154.127 4.68768C136.313 6.18417 119.571 12.6916 105.798 23.4391C94.0116 32.6448 84.4797 44.7075 78.3856 58.1532C73.921 67.9938 71.3762 77.5849 70.2824 88.7632C69.8806 92.7766 69.9476 102.345 70.394 106.517C73.0951 131.867 85.0378 153.974 104.57 169.8C115.62 178.757 128.746 184.992 142.854 187.962C146.292 188.688 153.926 189.708 154.149 189.482C154.238 189.414 153.859 188.575 153.323 187.645C152.341 185.944 152.341 185.944 151.225 185.808C138.791 184.244 127.585 180.48 117.272 174.449C112.361 171.592 105.999 166.83 102.003 163.044L100.329 161.479L104.191 157.511L108.075 153.566L107.584 151.888C107.316 150.958 107.048 150.119 106.981 150.006C106.914 149.915 104.838 151.888 102.338 154.405L97.8288 158.962L96.6233 157.647C92.5606 153.18 88.6094 147.807 85.6182 142.66C78.3856 130.189 74.2112 116.222 73.5192 102.073L73.363 99.08H81.6224H89.8818L90.0158 102.073C90.5069 112.503 94.0115 124.18 99.503 133.771C100.999 136.402 104.325 141.322 104.414 141.05C104.459 140.936 103.834 138.556 103.03 135.744C101.936 131.844 101.266 129.939 100.262 127.831C98.3645 123.863 98.1636 123.341 97.0028 119.963C95.1947 114.657 94.2571 110.394 93.5204 103.955C93.141 100.644 92.8731 99.3747 91.6453 95.112C90.8417 92.3684 90.172 90.2144 90.1497 90.3504C90.1274 90.4638 90.0604 91.6882 89.9711 93.0713L89.8372 95.5655L81.6001 95.6335L73.363 95.6788L73.4969 92.3458C74.1219 77.7436 78.8097 62.6654 86.6673 49.8545C89.2568 45.6144 93.007 40.6035 96.0652 37.293L97.7171 35.4791L103.543 41.3517L109.347 47.247L108.41 48.358C104.079 53.4823 101.914 56.4753 99.6146 60.5113C98.0966 63.1642 95.976 67.4496 95.976 67.8577C95.976 68.0164 96.5117 68.6967 97.1814 69.3542L98.3868 70.5786L99.8155 67.5403C101.49 63.9805 102.985 61.3503 105.285 57.9265C106.847 55.6137 110.664 50.8068 111.49 50.1039C111.803 49.8318 112.517 50.4667 117.317 55.3416L122.763 60.8741L121.893 61.7811C117.562 66.3839 113.142 74.2972 111.044 81.2354L110.419 83.2534L111.736 84.5912C112.45 85.3168 113.098 85.929 113.165 85.929C113.231 85.929 113.522 85.0447 113.812 83.9337C115.575 77.3355 119.303 70.1478 123.656 64.9781L125.107 63.2549L130.174 68.4019C134.572 72.8687 135.219 73.617 134.974 73.9344C134.84 74.1385 134.148 75.0681 133.434 75.9751C129.84 80.7593 127.362 86.972 126.714 92.958L126.424 95.5655L124.438 95.6335L122.451 95.7015L124.103 97.3794C125.018 98.309 125.933 99.08 126.156 99.08C126.402 99.08 126.558 99.2387 126.558 99.5108C126.558 99.9189 130.308 104.204 130.487 104.023C130.532 103.978 130.465 103.547 130.353 103.048C130.241 102.549 130.085 101.461 130.018 100.599L129.862 99.08H131.425H132.987L133.344 97.6061C133.545 96.8125 133.701 96.0416 133.701 95.9056C133.701 95.7695 132.965 95.6788 131.782 95.6788H129.84L129.996 94.069C130.532 88.083 133.277 81.3715 137.028 76.8594C137.586 76.1791 137.72 76.1338 138.032 76.3832C138.233 76.5646 138.434 76.6553 138.479 76.6099C138.523 76.5646 138.925 74.9774 139.371 73.1181C139.818 71.2362 140.264 69.5129 140.331 69.2862C140.465 68.7874 140.555 68.742 138.523 70.3746L137.697 71.0321L132.675 65.9531C129.929 63.1642 127.674 60.8061 127.674 60.7381C127.674 60.4433 131.893 57.0422 134.126 55.523C136.693 53.7771 140.733 51.6457 143.3 50.6481C144.216 50.308 145.041 49.9225 145.108 49.8318C145.309 49.537 146.046 46.2266 145.934 46.1133C145.756 45.9545 141.135 47.7685 138.657 48.9702C134.282 51.1016 129.594 54.2533 126.491 57.1329L125.197 58.3346L119.727 52.8021L114.258 47.2696L115.665 45.9319C124.058 37.9733 135.889 31.8966 147.854 29.4025L150.31 28.9036L150.711 27.2257C150.957 26.3188 151.091 25.5025 151.024 25.4572C150.845 25.2758 147.876 25.8199 144.483 26.6589C132.876 29.5158 122.652 35.003 113.321 43.3924L111.803 44.7528L106.021 38.8802L100.217 33.0076L100.954 32.2367C102.092 31.0123 105.954 27.6792 108.387 25.8199C121.714 15.5712 137.764 9.44925 154.685 8.11147C155.377 8.04344 155.466 7.95274 155.712 7.13647C155.846 6.63765 156.024 5.84406 156.114 5.3679C156.292 4.43826 156.426 4.48361 154.127 4.68768Z" fill="#0E86FF"/>
<path d="M165.311 5.22383C165.399 5.58641 165.62 6.37958 165.819 7.0141C166.173 8.14717 166.173 8.14717 167.167 8.21515C167.72 8.23782 169.555 8.41911 171.257 8.62306C186.797 10.368 202.736 17.1891 215.027 27.3188C218.122 29.8795 220.973 32.4856 221.062 32.8255C221.084 32.9615 218.586 35.6582 215.491 38.8308L209.876 44.5868L206.825 41.9128C198.293 34.5251 187.969 29.177 177.336 26.6389C173.667 25.7778 170.483 25.2566 170.483 25.5285C170.483 26.0724 171.257 28.7918 171.434 28.9277C171.566 28.9957 172.208 29.1317 172.871 29.2224C174.904 29.4716 179.9 30.8313 183.084 31.9644C187.925 33.6867 192.81 36.0661 196.9 38.6949C199.398 40.3038 204.128 43.975 205.919 45.6973L207.422 47.1249L202.028 52.6543L196.612 58.1611L194.866 56.6201C191.108 53.2888 186.665 50.4335 181.824 48.258C179.591 47.2609 175.744 45.8332 175.612 45.9692C175.59 46.0145 175.767 46.8983 176.01 47.9407L176.474 49.8443L178.242 50.4788C183.106 52.2464 188.942 55.8496 193.473 59.8833L194.247 60.5858L189.185 65.798L184.123 71.0101L183.106 70.081C181.89 68.9933 181.315 68.6533 181.315 68.9933C181.315 69.3332 183.106 76.5622 183.216 76.6755C183.26 76.7208 183.504 76.5849 183.747 76.3582C184.189 75.9503 184.211 75.9503 184.852 76.7208C186.996 79.2816 189.384 83.6099 190.489 86.9865C191.13 88.958 191.815 92.176 192.037 94.3061L192.169 95.7338H190.047C188.898 95.7338 187.947 95.8018 187.947 95.8924C187.969 96.0057 188.146 96.7309 188.345 97.5467L188.721 99.0197L190.445 99.0877C191.373 99.133 192.147 99.2237 192.147 99.3143C192.147 99.405 191.992 100.493 191.815 101.716C191.639 102.963 191.528 104.005 191.572 104.051C191.617 104.096 192.501 103.235 193.562 102.147C194.778 100.855 195.463 99.9715 195.463 99.6316C195.463 99.269 195.596 99.133 195.971 99.133C196.303 99.133 197.032 98.5665 198.116 97.4334L199.752 95.7338H197.651H195.529L195.286 93.2864C194.557 86.4879 191.838 79.9387 187.549 74.7039L186.554 73.4802L191.639 68.2681L196.723 63.0559L198.381 65.0955C202.736 70.4209 206.361 77.4233 208.041 83.8365C208.306 84.8336 208.572 85.8081 208.638 85.9894C208.727 86.2386 209.147 85.8987 210.053 84.8563C210.782 84.0405 211.379 83.3153 211.379 83.2247C211.401 82.7035 209.832 78.2165 208.727 75.6557C206.737 70.9421 203.377 65.5261 200.37 62.1722C199.729 61.4697 199.221 60.7898 199.221 60.6992C199.221 60.5858 201.608 58.0478 204.526 55.0564L209.81 49.6404L210.407 50.1842C211.313 51.068 214.695 55.3057 216.176 57.4359C218.166 60.3139 220.111 63.7131 221.88 67.4523L223.449 70.8062L224.731 69.4692L226.013 68.1548L224.554 65.1635C221.658 59.2488 218.674 54.6259 214.607 49.8216L212.308 47.0796L217.989 41.2556L223.692 35.4089L224.908 36.746C229.97 42.2074 235.629 50.5921 238.923 57.4812C239.277 58.2064 239.719 58.8636 239.94 58.9315C240.227 59.0222 240.294 59.2035 240.227 59.5434C240.139 59.8607 240.515 61.0391 241.244 62.7614C244.958 71.6673 247.39 82.6355 247.788 92.2666L247.92 95.7338H239.962H231.982L231.849 95.2126C231.783 94.9407 231.717 93.8529 231.717 92.7878C231.717 91.7454 231.628 90.9749 231.54 91.0882C231.142 91.5641 228.401 102.079 228.18 104.005C227.141 113.228 224.952 120.956 221.371 128.298C221.017 129.024 220.111 131.811 219.382 134.485C218.63 137.159 217.923 139.697 217.812 140.105C217.503 141.193 217.79 140.875 219.514 138.292C226.743 127.324 230.987 114.701 231.672 102.192L231.827 99.2463L239.874 99.1784L247.92 99.133L247.788 102.351C247.058 119.279 240.736 136.932 230.435 150.892C227.937 154.291 223.935 158.959 223.537 158.959C223.449 158.959 221.526 157.033 219.227 154.654L215.049 150.371L214.474 152.002C213.943 153.521 211.136 158.144 208.771 161.339L207.953 162.449L209.478 161.588C210.318 161.112 211.291 160.546 211.622 160.342C212.131 160.047 212.33 159.617 212.927 157.373C213.325 155.945 213.722 154.631 213.789 154.495C213.877 154.314 215.248 155.56 217.547 157.917L221.15 161.611L219.183 163.446C208.837 173.168 195.043 180.601 180.984 184C178.331 184.635 172.981 185.587 170.682 185.813L169.245 185.972L168.228 187.694L167.212 189.439L167.941 189.507C168.98 189.598 175.324 188.759 178.662 188.057C208.329 181.961 233.087 161.044 244.604 132.332C257.625 99.8582 251.457 62.2628 228.821 36.0208C212.86 17.5064 191.241 6.53821 167.212 4.7253L165.156 4.56665L165.311 5.22383Z" fill="#0E86FF"/>
<path d="M152.781 35.1011C148.676 51.9484 141.465 81.4142 136.762 100.603C132.058 119.77 128.22 135.617 128.22 135.799C128.22 136.003 130.793 140.619 133.922 146.075C137.05 151.532 140.245 157.057 140.977 158.375C143.151 162.172 154.156 181.316 154.955 182.703C155.354 183.385 156.708 185.727 157.95 187.864C159.193 190.024 160.28 191.797 160.346 191.797C160.435 191.797 160.879 191.161 161.322 190.365C161.766 189.592 169.132 176.996 177.674 162.377C186.216 147.758 193.183 135.753 193.138 135.662C193.05 135.526 192.096 131.706 188.457 117.11C187.636 113.858 186.549 109.448 186.016 107.333C185.484 105.196 184.397 100.808 183.576 97.5567C182.777 94.3055 181.623 89.6901 181.024 87.3256C180.425 84.9383 179.338 80.5502 178.584 77.5491C176.609 69.5915 174.501 61.1565 173.148 55.7226C172.482 53.0853 171.351 48.4926 170.597 45.4915C169.842 42.4903 168.711 37.8749 168.045 35.2603C167.379 32.6229 166.048 27.2118 165.05 23.2102C161.056 7.20415 160.413 4.63499 160.346 4.56679C160.302 4.52132 156.907 18.2765 152.781 35.1011Z" fill="#0E86FF"/>
<path d="M262.392 12.5809C262.392 12.6491 262.995 13.6722 263.753 14.8773C266.542 19.4019 268.795 24.9724 270.379 31.2932C271.829 37.0001 272.387 39.6603 272.766 42.4342C272.967 43.8666 273.213 45.2763 273.324 45.5491C273.659 46.3676 273.213 46.163 272.61 45.2081C271.852 44.0485 268.661 40.7971 266.631 39.1146C265.716 38.3643 263.195 36.4317 261.054 34.8401C254.004 29.6334 251.483 27.4962 249.051 24.6086C248.538 23.9947 248.069 23.54 248.002 23.5854C247.846 23.7446 248.694 27.7008 249.229 29.4288C250.033 31.9071 251.795 35.3631 253.334 37.4321C255.945 40.9563 259.18 44.003 265.85 49.1415C270.469 52.7112 273.079 54.9167 274.953 56.8493C276.626 58.5545 278.768 61.2602 279.348 62.4198C279.504 62.7381 279.683 62.8745 279.816 62.7381C280.374 62.1697 280.664 46.1403 280.24 40.4334C279.794 34.4763 278.121 28.1328 275.957 24.0174C273.057 18.5606 268.684 14.6726 263.24 12.7855C262.772 12.6036 262.392 12.5126 262.392 12.5809Z" fill="#0E86FF"/>
<path d="M59.0379 14.3764C55.7665 15.9704 52.2334 19.2266 50.1397 22.5739C47.5007 26.8548 45.6469 32.9118 44.6655 40.5627C44.3384 43.1358 44.2729 45.2763 44.2729 53.7014C44.2729 59.2347 44.3384 63.8344 44.4256 63.9255C44.5129 64.0165 45.3852 63.1968 46.3448 62.1266C48.2641 59.9861 51.4701 57.0032 55.0686 53.9974C63.5306 46.9157 67.2164 43.3407 69.9862 39.447C72.9305 35.3255 74.9806 30.2476 75.4604 25.8756L75.6131 24.5094L74.2391 26.1033C71.3602 29.4506 68.1324 32.4108 61.2625 38.0124C55.6793 42.5438 54.5234 43.5685 52.0807 46.096C51.0775 47.0979 50.2705 47.8266 50.2705 47.6672C50.2705 47.3939 50.5541 46.2554 52.3642 39.3103C55.3739 27.7884 58.0565 19.5681 60.2156 15.2873C60.5646 14.6041 60.8699 13.9666 60.9135 13.8527C61.0662 13.5339 60.4119 13.7161 59.0379 14.3764Z" fill="#0E86FF"/>
<path d="M282.38 32.288C282.337 32.4467 282.575 33.286 282.966 34.1479C283.898 36.3028 284.418 38.6391 284.787 42.2003C285.308 47.1678 285.134 52.9291 284.158 65.019C283.985 67.1285 283.768 70.304 283.681 72.0733C283.616 73.8652 283.464 75.3169 283.356 75.3169C283.248 75.3169 283.161 75.1581 283.161 74.954C283.161 74.3415 282.055 71.6423 281.166 70.0999C279.279 66.8336 276.547 63.8395 271.451 59.4391C267.136 55.6964 265.943 54.4489 264.772 52.3394C264.208 51.3187 263.384 50.1165 262.907 49.6402C262.083 48.8009 260.674 48.1658 260.348 48.506C260.24 48.6194 260.305 49.1411 260.479 49.7082C260.652 50.2526 261.107 51.727 261.476 52.9745C262.625 56.7171 264.946 61.9115 267.006 65.3365C268.48 67.8089 271.603 72.595 274.4 76.6778C277.913 81.7814 280.038 85.2065 281.86 88.6089C283.248 91.2401 285.069 95.391 285.264 96.4571C285.481 97.5685 285.871 97.0242 286.045 95.391C286.305 92.8506 287.172 89.5389 288.907 84.2538C293.244 71.234 293.83 68.6028 293.873 62.0476C293.895 57.1027 293.591 54.4489 292.464 50.1845C291.011 44.6273 288.539 39.0474 285.286 33.9892C284.223 32.3333 282.705 31.4487 282.38 32.288Z" fill="#0E86FF"/>
<path d="M38.9911 37.122C34.7617 42.7182 32.6577 49.1073 32.0566 58.1247C31.7131 63.3584 32.3142 71.1976 33.4735 76.3633C33.6453 77.1789 33.8815 78.2891 34.0103 78.8555C34.9978 83.5454 38.0679 92.1776 40.2792 96.4144C41.3312 98.4535 41.4385 98.5441 41.6103 97.6152C42.1041 95.2136 43.7142 90.9315 45.26 87.9182C47.0849 84.3837 48.6092 81.9821 52.86 75.9102C58.8928 67.3006 61.7053 61.4552 62.6499 55.5192C63.3369 51.0785 63.3798 50.648 63.2296 50.4894C63.1222 50.3761 62.7358 50.7839 62.3279 51.373C61.9414 51.9847 59.0002 55.202 55.8228 58.5778C49.1459 65.624 47.3425 67.7311 45.5391 70.5632C44.208 72.6929 42.6193 75.8648 42.1685 77.3149C42.0182 77.7907 41.825 78.2211 41.7606 78.2664C41.6747 78.3118 41.6318 76.0687 41.6747 73.282C41.7391 68.2295 41.5029 64.3779 40.7301 57.9661C39.5493 48.0651 39.4849 39.9087 40.5583 35.8532C40.7945 34.9696 40.3651 35.3321 38.9911 37.122Z" fill="#0E86FF"/>
<path d="M233.944 66.6952C233.765 66.9669 231.349 69.4801 228.619 72.2876C222.979 78.0612 218.302 82.9065 205.704 95.9707C193.821 108.288 192.299 109.895 192.232 110.099C192.165 110.28 193.172 114.288 197.312 130.703L198.655 136.024L188.339 153.457C182.655 163.057 177.329 172.069 176.478 173.473C174.979 175.986 174.979 176.008 175.695 175.646C176.076 175.442 178.985 173.79 182.118 171.978C190.711 167.042 197.267 163.284 203.578 159.684L209.239 156.424L210.56 151.782C218.123 124.884 233.922 68.7782 234.459 66.9216C234.705 66.0839 234.437 65.9707 233.944 66.6952Z" fill="#0E86FF"/>
<path d="M89.0439 66.2245C89.0439 66.3155 91.4723 75.2343 94.4257 86.0188C103.876 120.556 113.065 154.07 113.437 155.481L113.809 156.846L122.691 162.079C133.388 168.358 138.267 171.225 142.205 173.569C143.824 174.524 145.399 175.457 145.705 175.616C146.23 175.912 146.23 175.912 145.902 175.366C145.705 175.07 143.736 171.589 141.505 167.653C137.501 160.577 133.388 153.297 126.935 141.921L123.653 136.096L126.803 123.15C128.532 116.029 129.932 110.022 129.888 109.817C129.844 109.453 128.357 107.838 117.812 96.6667C115.274 93.982 109.214 87.5204 104.358 82.333C91.4504 68.568 89.0439 66.0425 89.0439 66.2245Z" fill="#0E86FF"/>
<path d="M296.974 68.7748C296.909 68.9358 296.823 70.2694 296.758 71.7411C296.411 78.8693 294.676 85.4687 290.297 96.0921C287.327 103.266 284.92 110.234 284.92 111.567C284.92 111.797 284.833 111.935 284.725 111.866C284.617 111.797 284.465 110.923 284.378 109.958C283.988 105.06 282.492 99.8632 280.107 94.8964C279.218 93.1028 277.007 89.0788 275.186 85.9746C273.365 82.8703 271.37 79.2372 270.763 77.8806C270.134 76.5239 269.571 75.4202 269.505 75.4202C268.942 75.3512 269.375 84.319 270.178 89.1478C270.633 91.8841 272.107 98.1846 272.649 99.7022C273.755 102.783 276.335 112.004 277.31 116.327C278.308 120.742 278.524 122.835 278.524 128.468C278.524 131.273 278.568 133.573 278.633 133.573C278.828 133.573 284.703 127.157 285.896 125.663C293.484 116.12 298.34 105.336 299.988 94.4595C301.072 87.1933 300.682 78.6624 298.904 71.3732C298.362 69.1887 297.993 68.4989 297.343 68.4989C297.169 68.4989 297.018 68.6368 296.974 68.7748Z" fill="#0E86FF"/>
<path d="M26.8138 74.4675C26.4838 75.8756 26.1317 77.3973 25.9997 77.8288C25.6036 79.2596 25.1855 84.9147 25.2515 87.9353C25.3396 91.3874 25.7356 95.6345 26.0217 96.4521C26.1317 96.77 26.3297 97.6331 26.4838 98.3825C28.5521 109.352 35.7253 122.161 46.7931 134.721L47.7832 135.856L47.8052 131.541C47.8052 126.976 47.9813 124.819 48.7074 120.413C49.3455 116.529 49.7635 114.939 52.8661 104.287C55.6385 94.7941 56.3646 90.9105 56.5406 84.9829C56.6727 80.804 56.4966 76.9203 56.1666 76.9203C56.0786 76.9203 55.7705 77.5108 55.4845 78.2149C54.7804 80.0091 52.9541 83.6429 50.7097 87.7082C46.639 95.0894 44.6587 99.4273 43.4705 103.447C42.6124 106.422 41.8863 110.17 41.7102 112.509C41.6442 113.667 41.4902 114.621 41.3802 114.621C41.2922 114.621 41.2041 114.439 41.2041 114.212C41.2041 112.736 38.7617 104.992 36.4074 99.0639C35.6372 97.0653 34.207 93.4769 33.2829 91.0922C30.8625 84.9829 28.5961 77.5335 27.98 73.6726C27.826 72.7187 27.6279 71.9239 27.5399 71.9239C27.4519 71.9239 27.1219 73.0821 26.8138 74.4675Z" fill="#0E86FF"/>
<path d="M269.312 108.743C269.222 108.97 269.02 109.536 268.84 109.966C268.548 110.69 267.695 113.722 267.156 115.963C266.729 117.773 266.078 121.711 265.651 125.242C265.246 128.614 265.022 130.854 264.168 139.839C262.911 153.259 261.54 161.022 259.676 165.276C259.362 166.001 259.137 166.634 259.182 166.68C259.317 166.815 276.32 155.387 278.993 153.372C291.683 143.845 298.062 134.588 300.668 121.915C301.274 118.928 301.97 111.323 301.611 111.323C301.521 111.323 300.96 112.183 300.376 113.247C296.692 119.788 291.751 126.215 282.833 136.105C276.994 142.577 274.523 145.361 272.861 147.42C272.052 148.416 271.446 149.072 271.513 148.869C273.265 144.003 273.602 141.717 273.58 134.521C273.58 126.713 272.928 121.802 270.57 111.776C269.829 108.608 269.581 107.997 269.312 108.743Z" fill="#0E86FF"/>
<path d="M54.8023 110.281C54.8023 110.667 54.4104 113.692 53.9313 116.99C53.0386 123.131 52.3853 128.225 51.9499 132.183C51.8192 133.457 51.7539 136.481 51.8192 139.233C51.9063 144.123 52.2112 146.33 53.1692 149.15C53.3434 149.696 53.4523 150.196 53.4087 150.241C53.3652 150.31 52.9515 149.764 52.516 149.036C50.7087 146.102 47.9651 142.781 41.1933 135.412C38.4497 132.41 35.4231 128.999 34.4868 127.862C30.9158 123.449 27.6061 118.059 26.1472 114.215C25.7988 113.306 25.4286 112.555 25.3198 112.555C25.1238 112.555 25.3415 119.378 25.6246 121.539C26.1907 125.928 27.519 130.591 29.3262 134.548C33.8771 144.533 41.6941 152.47 55.5862 161.227C58.4822 163.069 66.4734 167.822 66.6476 167.822C66.7129 167.822 66.4734 167.163 66.125 166.344C65.3194 164.434 63.8822 159.68 63.3161 156.905C62.4669 152.834 61.9661 148.854 60.8991 137.573C59.8975 126.952 59.3967 123.472 58.0467 117.923C57.0668 113.897 55.5209 109.598 55.0201 109.598C54.9112 109.598 54.8023 109.917 54.8023 110.281Z" fill="#0E86FF"/>
<path d="M258.263 136.909C254.329 141.774 250.015 150.633 246.171 161.855C241.611 175.096 237.924 183.082 233.632 188.865L232.313 190.655L233.364 190.518C237.432 190.013 245.277 188.521 248.294 187.695C249.166 187.443 250.462 187.075 251.2 186.869C260.073 184.39 269.818 179.319 275.898 174.018C283.028 167.775 287.744 160.73 291.119 151.321C291.789 149.439 291.812 148.843 291.163 149.829C290.336 151.046 287.252 154.121 284.726 156.209C279.742 160.317 272.858 164.7 261.928 170.69C257.682 173.008 250.529 177.184 248.898 178.309C247.981 178.906 247.199 179.41 247.132 179.41C247.065 179.41 247.601 178.768 248.317 177.965C252.183 173.742 255 166.697 256.899 156.576C257.145 155.177 257.503 153.387 257.682 152.56C257.861 151.734 258.151 150.082 258.352 148.889C258.755 146.502 259.872 140.604 260.364 138.447C260.61 137.368 260.632 136.978 260.409 136.496C259.962 135.532 259.313 135.647 258.263 136.909Z" fill="#0E86FF"/>
<path d="M65.5667 139.883C66.0494 141.875 66.9051 146.222 68.068 152.516C69.8013 161.821 71.6444 168.387 73.8604 173.119C75.155 175.858 76.8225 178.575 78.0512 180.002C78.4023 180.409 78.7094 180.817 78.7094 180.862C78.7094 181.02 77.8537 180.477 77.7221 180.228C77.5466 179.956 74.014 177.556 71.4688 176.017C69.0772 174.568 67.1245 173.504 60.3885 169.949C48.6061 163.723 44.1301 160.712 39.4347 155.822C38.0304 154.373 36.5604 152.697 36.1654 152.109C35.7705 151.497 35.3975 151.067 35.3317 151.135C35.1561 151.316 36.7578 156.161 37.8549 158.742C39.5882 162.818 41.6946 166.349 44.3056 169.542C52.3142 179.322 64.689 185.82 83.361 189.986C86.1914 190.642 92.5324 191.797 93.1687 191.797C93.6734 191.797 93.6734 191.774 92.9274 190.824C90.6674 187.971 88.2539 183.918 86.4108 179.956C85.7965 178.598 85.2918 177.466 85.2918 177.398C85.2918 177.353 85.0943 176.877 84.8749 176.334C84.2825 174.998 83.0538 171.851 81.7812 168.364C76.5811 154.101 74.3651 149.233 70.7448 144.071C69.2747 141.943 65.8519 138.14 65.435 138.14C65.2375 138.14 65.2595 138.57 65.5667 139.883Z" fill="#0E86FF"/>
<path d="M238.528 167.005C235.198 169.555 230.461 173.768 224.965 179.111C215.289 188.491 211.826 191.595 209.882 192.548C209.256 192.859 207.469 193.48 205.882 193.923C202.262 194.921 200.318 195.63 199.067 196.429C197.793 197.227 197.346 197.737 197.771 197.892C204.05 200.176 212.027 201.95 220.429 202.925C221.948 203.103 225.523 203.214 229.813 203.214C237.075 203.191 239.533 202.992 244.561 201.95C254.929 199.821 263.152 194.987 267.688 188.358C268.783 186.761 270.369 183.79 270.369 183.346C270.369 183.213 269.833 183.568 269.207 184.1C266.861 186.052 263.532 187.803 259.42 189.245C256.783 190.154 250.616 191.706 248.851 191.927C248.203 191.994 246.929 192.194 246.013 192.349C242.751 192.97 234.752 193.701 224.763 194.344C221.859 194.522 219.289 194.677 219.066 194.677C218.82 194.677 219.468 194.322 220.496 193.901C223.825 192.548 226.082 190.974 228.718 188.18C231.936 184.743 235.243 179 238.304 171.506C238.997 169.799 239.69 168.091 239.846 167.737C240.472 166.295 240.718 165.608 240.628 165.541C240.584 165.497 239.645 166.14 238.528 167.005Z" fill="#0E86FF"/>
<path d="M85.1186 167.882C85.1186 168.212 89.0914 175.951 91.1115 179.545C93.9396 184.572 96.1841 187.57 99.3938 190.635C101.414 192.531 102.536 193.325 105.162 194.692C106.689 195.508 106.868 195.662 106.217 195.574C105.23 195.442 98.2716 194.912 91.6278 194.472C80.5173 193.722 73.6266 192.73 68.0602 191.054C65.2546 190.216 64.9628 190.106 62.404 188.915C60.1595 187.857 58.1394 186.644 57.2416 185.807C55.0868 183.822 58.6781 189.577 61.6184 192.818C66.0401 197.691 73.0655 201.439 80.5622 202.938C85.3655 203.886 86.8694 204.084 90.6851 204.283C94.2314 204.481 103.726 204.239 104.197 203.952C104.264 203.908 105.948 203.666 107.923 203.423C112.21 202.894 116.564 202.122 121.256 201.064C126.306 199.917 130.458 198.771 130.458 198.528C130.458 198.22 128.595 197.073 127.091 196.456C126.306 196.125 124.039 195.442 122.064 194.912C120.066 194.405 117.866 193.766 117.126 193.501C115.016 192.774 113.198 191.252 104.332 182.808C97.6655 176.458 96.1168 175.069 93.2887 172.842C90.2586 170.483 85.1186 167.352 85.1186 167.882Z" fill="#0E86FF"/>
<path d="M172.629 197.663C171.385 197.817 170.029 198.215 168.141 198.967C164.23 200.536 162.986 200.824 161.497 200.492C160.83 200.337 160.297 200.116 160.297 200.006C160.297 199.895 160.497 199.453 160.741 199.055L161.208 198.326L160.297 198.701C159.541 199.011 159.408 199.166 159.519 199.564C159.63 200.05 159.608 200.05 158.697 199.74C158.164 199.586 156.697 199.055 155.409 198.613L153.075 197.751L148.298 197.773C144.054 197.773 143.187 197.839 140.521 198.37C135.744 199.298 131.633 200.647 124.456 203.653C122.1 204.626 118.634 206.062 116.745 206.858C108.435 210.329 102.591 211.765 96.858 211.788C94.0361 211.788 91.5474 211.412 87.1256 210.351C82.5037 209.245 78.9707 208.715 78.9707 209.135C78.9707 209.688 86.4589 214.639 90.3697 216.651C93.9916 218.507 96.9691 219.613 100.302 220.364C103.835 221.138 109.612 221.182 113.323 220.453C119.189 219.281 123.056 217.424 131.633 211.677C139.632 206.283 143.254 204.427 147.631 203.388C149.787 202.901 154.164 202.548 154.875 202.813C155.231 202.946 155.209 202.99 154.72 203.255C153.098 204.117 143.632 209.864 141.21 211.434C136.099 214.772 132.255 218.021 129.566 221.248C127.011 224.321 126.367 225.493 127.255 225.493C127.789 225.493 129.189 226.863 129.988 228.145C130.433 228.875 130.855 229.471 130.922 229.471C130.988 229.471 133.299 227.217 136.055 224.454C146.676 213.799 151.609 209.931 159.564 205.996L163.186 204.206L164.119 204.626C165.719 205.333 170.029 207.986 172.607 209.864C176.829 212.893 179.718 215.391 188.495 223.503C191.583 226.355 194.205 228.742 194.316 228.786C194.45 228.83 195.427 228.013 196.472 226.996C197.538 225.957 198.605 225.006 198.849 224.896C199.449 224.564 199.16 224.034 197.138 221.735C194.094 218.286 190.294 215.302 182.739 210.461C175.585 205.886 171.207 202.857 170.829 202.26C170.652 201.951 175.207 202.039 177.851 202.393C182.206 202.968 183.651 203.763 191.072 209.688C197.183 214.573 198.916 215.59 203.693 217.225C208.493 218.861 212.581 219.392 219.292 219.237C223.58 219.126 224.847 219.016 227.158 218.552C233.779 217.203 238.935 214.816 242.49 211.456C243.867 210.174 245.912 207.433 245.734 207.146C245.69 207.057 244.867 207.389 243.912 207.853C241.89 208.825 238.001 210.152 235.757 210.594C234.89 210.771 232.735 210.97 230.958 211.036C224.18 211.323 218.292 209.931 206.626 205.311C193.116 199.961 190.717 199.188 184.517 198.06C181.74 197.552 175.273 197.331 172.629 197.663Z" fill="#0E86FF"/>
<path d="M44.9738 286.834V291.955H66.8136V286.834H44.9738ZM44.1021 298.594V303.763H68.19V298.594H44.1021ZM52.5902 291.197V298.12C52.5902 303.479 51.902 312.062 41.9915 318.037C43.4138 319.033 45.2491 320.882 46.1209 322.067C56.7196 314.954 58.1419 305.043 58.1419 298.168V291.197H52.5902ZM57.6831 303.336L53.049 304.427C55.2513 312.251 59.0595 318.369 65.2994 321.498C66.0794 320.028 67.6853 317.847 68.8782 316.756C63.2348 314.433 59.5183 309.406 57.6831 303.336ZM60.0689 277.824C59.1513 280.717 57.4078 284.605 55.9396 287.166L60.436 288.589C62.0418 286.218 63.9689 282.708 65.6665 279.294L60.0689 277.824ZM45.7079 279.958C47.4973 282.139 49.3326 285.222 50.0667 287.261L54.7008 284.747C53.8749 282.708 51.9478 279.863 50.1126 277.777L45.7079 279.958ZM25.8411 278.82V283.894H43.6891V278.82H25.8411ZM30.7963 288.921V293.568H39.0551V288.921H30.7963ZM30.7963 298.547V303.194H39.0551V298.547H30.7963ZM27.7681 281.523V311.303H32.6316V281.523H27.7681ZM37.3574 281.475V321.546H42.0374V281.475H37.3574ZM25.2446 310.07L26.3458 315.381C31.6681 314.385 38.8715 313.105 45.5703 311.872L45.2491 306.988C38.0457 308.173 30.2916 309.406 25.2446 310.07Z" fill="black"/>
<path d="M81.3122 292.335V297.551H104.345V292.335H81.3122ZM80.7616 314.148V319.412H104.437V314.148H80.7616ZM78.3299 301.629V321.451H83.9275V306.656H102.188V321.261H108.061V301.629H78.3299ZM93.1497 276.781C88.2862 284.178 79.6146 290.011 71.1264 293.473C72.6864 294.895 74.2464 297.077 75.164 298.689C83.8816 294.421 92.4615 287.782 98.0591 279.389L93.1497 276.781ZM95.0309 280.053L90.3509 282.566C97.5544 290.58 104.07 294.658 110.998 297.978C111.778 296.176 113.384 294.089 114.76 292.762C108.015 290.248 101.408 286.644 95.0309 280.053Z" fill="black"/>
<path d="M117.605 279.721V285.032H133.801V279.721H117.605ZM118.293 293.378V298.642H132.837V293.378H118.293ZM116.779 311.398L117.834 316.851C122.56 315.476 128.708 313.816 134.443 312.157L133.755 306.988C127.653 308.695 121.138 310.449 116.779 311.398ZM123.248 281.902V311.825L128.525 310.924V281.902H123.248ZM135.269 279.152V304.427H140.5V284.036H152.2V304.427H157.66V279.152H135.269ZM145.639 304.285V315.429C145.639 319.507 147.153 320.597 150.961 320.597H154.356C159.036 320.597 159.816 318.416 160.275 310.971C158.99 310.687 157.247 309.928 156.008 308.885C155.824 315.097 155.549 316.472 154.356 316.472H152.016C151.053 316.472 150.731 316.092 150.731 314.812V304.285H145.639ZM143.757 286.976V294.516C143.757 301.866 142.473 311.303 130.727 317.61C131.782 318.463 133.526 320.55 134.168 321.641C146.556 314.86 148.85 303.099 148.85 294.611V286.976H143.757Z" fill="black"/>
<path d="M164.129 283.609V289.063H205.055V283.609H164.129ZM179.086 298.974V304.237H203.128V298.974H179.086ZM177.297 315.097V320.36H204.872V315.097H177.297ZM188.446 291.102V317.894H193.998V291.102H188.446ZM178.582 276.971C176.196 286.549 170.965 297.172 162.661 302.767C163.487 304.142 164.771 306.656 165.322 308.268C175.141 301.345 180.922 289.821 184.317 278.393L178.582 276.971ZM169.405 296.84V321.451H174.957V296.84H169.405Z" fill="black"/>
<path d="M210.378 301.724V306.656H250.295V301.724H210.378ZM218.407 288.02C217.031 292.003 214.507 295.986 211.571 298.452C212.947 299.163 215.379 300.633 216.526 301.534C219.325 298.642 222.215 294.089 223.913 289.442L218.407 288.02ZM219.692 291.908L217.352 296.792H246.578V291.908H219.692ZM227.813 286.881V304H233.319V286.881H227.813ZM221.343 306.276C220.655 311.493 219.049 314.907 209.414 316.756C210.469 317.847 211.846 320.028 212.351 321.404C223.592 318.795 226.115 313.769 227.033 306.276H221.343ZM232.952 306.087V314.006C232.952 319.08 234.19 320.787 239.513 320.787C240.568 320.787 244.284 320.787 245.386 320.787C249.698 320.787 251.167 319.033 251.717 311.967C250.295 311.588 247.863 310.734 246.762 309.786C246.624 314.86 246.349 315.476 244.881 315.476C243.963 315.476 241.027 315.476 240.293 315.476C238.687 315.476 238.412 315.334 238.412 313.959V306.087H232.952ZM210.24 280.432V290.391H215.608V285.601H245.064V290.391H250.708V280.432H210.24ZM226.712 278.014C227.629 279.816 228.547 282.329 228.822 283.799L234.512 282.092C234.099 280.527 233.089 278.203 232.08 276.449L226.712 278.014Z" fill="black"/>
<path d="M255.342 312.157V316.662H297.232V312.157H255.342ZM273.282 308.173V321.546H279.063V308.173H273.282ZM265.665 303.953H286.725V306.182H265.665V303.953ZM265.665 298.168H286.725V300.396H265.665V298.168ZM260.297 294.421V309.975H292.323V294.421H260.297ZM258.462 280.148V284.605H294.341V280.148H258.462ZM255.525 288.257V292.714H297.003V288.257H255.525ZM282.458 284.226C282.091 285.696 281.219 287.735 280.577 289.158L285.945 290.153C286.633 288.873 287.413 287.213 288.331 285.269L282.458 284.226ZM264.564 285.364C265.252 286.929 266.078 289.015 266.354 290.343L271.905 289.015C271.492 287.688 270.712 285.696 269.932 284.273L264.564 285.364ZM272.41 277.54C273.098 279.199 273.97 281.428 274.291 282.898L279.98 281.475C279.567 280.1 278.696 277.966 277.916 276.401L272.41 277.54Z" fill="black"/>
<rect x="0.910156" y="345.649" width="323.791" height="5.32676" fill="#0E86FF"/>
</svg>
